<svg width="16.000000" height="16.000000" viewBox="0 0 16 16" fill="none" xmlns="http://www.w3.org/2000/svg" xmlns:xlink="http://www.w3.org/1999/xlink">
	<desc>
			Created with Pixso.
	</desc>
	<defs/>
	<path id="Vector" d="M8 11.19C7.53 11.19 7.06 11.01 6.71 10.66L2.36 6.31C2.17 6.12 2.17 5.8 2.36 5.61C2.56 5.41 2.88 5.41 3.07 5.61L7.42 9.95C7.74 10.27 8.26 10.27 8.58 9.95L12.92 5.61C13.12 5.41 13.44 5.41 13.63 5.61C13.82 5.8 13.82 6.12 13.63 6.31L9.28 10.66C8.93 11.01 8.46 11.19 8 11.19Z" fill="#90A3BF" fill-opacity="1.000000" fill-rule="nonzero"/>
	<path id="Vector" d="M6.71 10.66L2.36 6.31C2.17 6.12 2.17 5.8 2.36 5.61C2.56 5.41 2.88 5.41 3.07 5.61L7.42 9.95C7.74 10.27 8.26 10.27 8.58 9.95L12.92 5.61C13.12 5.41 13.44 5.41 13.63 5.61C13.82 5.8 13.82 6.12 13.63 6.31L9.28 10.66C8.93 11.01 8.46 11.19 8 11.19C7.53 11.19 7.06 11.01 6.71 10.66Z" stroke="#90A3BF" stroke-opacity="1.000000" stroke-width="0.500000"/>
	<g opacity="0.000000"/>
</svg>
